<svg xmlns="http://www.w3.org/2000/svg" width="149" height="63.721" viewBox="0 0 149 63.721"><g transform="translate(-174.194 -194.325)"><path d="M715.324,201.41c-2.438-3.491-6.258-4.373-10.3-4.567-3.581-.172-7.18,0-10.77-.05a3.29,3.29,0,0,0-3.644,2.644c-2.374,10.868-4.634,21.758-7,32.627-.346,1.588.077,2.237,1.8,2.108a6.1,6.1,0,0,1,1.008.088c.744-.028,1.491-.111,2.23-.073,1.9.1,2.93-.446,3.207-2.476a81.2,81.2,0,0,1,2.014-9.241,2.2,2.2,0,0,1,1.556-1.211c1.4-.178,2.842.022,4.257-.073,5.436-.367,10.315-1.825,13.654-6.258a14.014,14.014,0,0,0,2.336-13.1l.007,0Zm-8.041,3.728.289.449c.834,5.036-2.291,9.933-8.825,9.737h-3.333l2.657-12.749a29.9,29.9,0,0,1,4.5.045c1.836.289,4.025.239,4.717,2.511Z" transform="translate(-395.868 -1.354)" fill="#fff"/><path d="M209.632,214.467c.256-2.355.2-2.406-2.383-2.42q-3.413-.018-6.825-.048h-3.7a57.728,57.728,0,0,0,1.524-6.98c.175-1.856,1.072-2.1,2.734-2.063,3.573.089,7.152-.036,10.725.056a2.583,2.583,0,0,0,2.909-2.04c.144-.478.333-.944.5-1.416-.147-2.633-.147-2.633-2.931-2.633-5.754,0-11.509.019-17.263-.01-1.947-.01-3.125.633-3.53,2.576-1.408,6.757-2.938,13.491-4.4,20.239-.85,3.932-1.68,7.868-2.461,11.812-.424,2.146,0,2.576,2.431,2.793,5.339-.018,10.679.009,16.018-.069,4.572-.067,3.887.867,5.563-3.42-.017-2.634-.017-2.63-2.738-2.637q-4.538-.011-9.075-.038h-3.406c.692-3.314,1.265-6.339,2.012-9.325.1-.416,1.055-.9,1.628-.918,3.179-.09,6.364-.108,9.543-.02a2.282,2.282,0,0,0,2.619-1.825C209.286,215.539,209.465,215,209.632,214.467Z" transform="translate(-7.915 -1.471)" fill="#fff"/><path d="M0,37.372l2.695-9.017.447-1.3Q4.507,22.873,5.873,18.7l.429-1.5L8.745,9.577c.168-.262.335-.523.5-.784l-5.5-.576L11.674,0l4.867,5.055,3.027,3.028c-.77.122-1.538.276-2.313.356-1.3.135-2.612.223-3.92.33l.4.783q1.22,3.812,2.442,7.625.249.786.5,1.571l2.746,8.234q.206.668.411,1.337l2.721,9.054ZM9.248,8.793l4.086-.024Z" transform="translate(230.976 195.045)" fill="#fdc501" stroke="rgba(0,0,0,0)" stroke-width="1"/><path d="M520.2,337.67q11.876.028,23.752.053c.261,0,.522-.037,1.165-.086l-8.679-8.944-18.958-.078Z" transform="translate(-266.798 -105.452)" fill="#fff"/><path d="M330.3,337.721l15.635-.126,2.7-9.018c-5.48-.027-10.961-.077-16.441-.048a3.032,3.032,0,0,0-1.919.708c-2.7,2.654-5.3,5.388-8.32,8.484Z" transform="translate(-114.831 -105.377)" fill="#fff"/><path d="M503.39,283.475l2.747,8.234,17.765.048c-.382-.427-.753-.862-1.147-1.279q-3.3-3.492-6.616-6.975Z" transform="translate(-255.824 -69.812)" fill="#fff"/><path d="M387,291.577l2.731-8.355c-3.318,0-6.635-.016-9.953.02a5.6,5.6,0,0,0-1.7.385c-.223.076-.357.369-.541.554a73.942,73.942,0,0,0-6.714,7.4Z" transform="translate(-152.807 -69.611)" fill="#fff"/><path d="M490.266,240.1l2.441,7.625,11.269-.042-7.3-7.543Z" transform="translate(-245.606 -35.568)" fill="#fff"/><path d="M421.746,247.1l2.443-7.617c-4-.8-6.747.887-8.987,3.815a47.78,47.78,0,0,1-3.666,3.8Z" transform="translate(-184.425 -34.858)" fill="#fff"/><path d="M825.529,218.678l.356.419Z" transform="translate(-506.073 -18.623)" fill="#c5c5c6"/><g transform="translate(179.044 198.084)" opacity="0.2"><path d="M391.312,337.959H368.758l-15.635.127-1.757,2.4h71.443c-3.88-3.872-7.412-7.6-11.235-11.044-.78-.7-2.654-.336-4.024-.463l8.679,8.944c-.643.049-.9.086-1.165.086Q403.187,337.989,391.312,337.959Z" transform="translate(-316.844 -303.626)" fill="#414141"/><path d="M724.522,220.668a14.013,14.013,0,0,1-2.336,13.1c-3.339,4.432-8.218,5.891-13.654,6.258-1.415.1-2.86-.1-4.257.073a2.2,2.2,0,0,0-1.556,1.211,81.183,81.183,0,0,0-2.014,9.241c-.277,2.03-1.3,2.573-3.207,2.476-.74-.038-1.487.045-2.23.073-.893,1.635-.085,2.392,1.6,2.528a23.853,23.853,0,0,0,3.854,0,2.453,2.453,0,0,0,2.561-2.141c.664-3.53,1.536-7.026,2.36-10.7,2.206-.152,4.406-.408,6.611-.438,9.272-.128,16.561-7.691,15.565-16.354C727.573,223.842,726.866,221.761,724.522,220.668Z" transform="translate(-583.76 -218.275)" fill="#414141"/><path d="M257.822,209.381c-.169.472-.358.938-.5,1.416a2.582,2.582,0,0,1-2.908,2.04c-3.573-.091-7.152.033-10.725-.056-1.662-.042-2.559.207-2.734,2.063a57.707,57.707,0,0,1-1.524,6.981h3.7c.163-1.518.3-3.039.5-4.553a20.691,20.691,0,0,1,.542-2.14H251.1c2.03,0,4.069-.1,6.089.031a2.377,2.377,0,0,0,2.843-2.052c.087-.368.113-.748.182-1.12C260.693,209.408,260.694,209.408,257.822,209.381Z" transform="translate(-229.66 -209.381)" fill="#414141"/><path d="M240.578,279.716c-.167.538-.346,1.072-.5,1.613a2.282,2.282,0,0,1-2.619,1.825c-3.179-.088-6.364-.07-9.543.02-.573.016-1.524.5-1.628.917-.747,2.987-1.321,6.011-2.012,9.325h3.406c.424-2.352.777-4.719,1.338-7.042.1-.412,1.057-.893,1.633-.91,2.97-.092,5.945-.042,8.919-.044,2.547,0,3.059-.339,3.489-2.666a18.034,18.034,0,0,0,.028-3.04Z" transform="translate(-217.905 -264.805)" fill="#414141"/><path d="M217.429,356.962c-1.676,4.287-.991,3.353-5.563,3.42-5.338.078-10.679.051-16.018.069-.121,1.7.7,2.319,2.532,2.294,5.869-.08,11.74-.029,17.61-.029,2.95,0,3.763-.737,3.872-3.53.024-.626,0-1.253,0-2.118Z" transform="translate(-195.836 -325.674)" fill="#414141"/><path d="M560.281,283.57q3.309,3.487,6.616,6.975c.394.417.765.852,1.147,1.279h4.142c-2.821-2.814-5.264-5.51-8.043-7.857C563.363,283.307,561.6,283.674,560.281,283.57Z" transform="translate(-479.04 -267.833)" fill="#414141"/><path d="M518.854,240.092l7.3,7.543h3.911c-.606-.714-.958-1.183-1.367-1.6-1.545-1.587-3.222-3.075-4.635-4.759C522.588,239.51,520.664,240.182,518.854,240.092Z" transform="translate(-446.846 -233.539)" fill="#414141"/><path d="M502.791,214.068l3.027,3.028,2.65-.145-3.847-4.18Z" transform="translate(-434.349 -212.052)" fill="#414141"/><path d="M740.014,236.666c.586-3.007,1.11-6.028,1.825-9.008.112-.469,1.06-1.014,1.673-1.075,1.666-.165,3.359-.09,5.041-.11-.692-2.272-2.88-2.222-4.716-2.511a29.91,29.91,0,0,0-4.5-.045l-2.657,12.749Z" transform="translate(-616.179 -220.781)" fill="#414141"/></g><path d="M789.645,236.261l.289.449Z" transform="translate(-478.23 -32.478)" fill="#c3c4c5"/><g transform="translate(174.194 238.987)"><path d="M320.474,408.292c-.021-3.314-.948-4.179-4.4-4.179H178.5c-3.356,0-4.291.874-4.3,4.043q-.014,5.526,0,11.051c.012,2.96,1.084,3.961,4.245,3.961q29.841.006,59.683,0H315.82c3.632,0,4.639-.942,4.654-4.4Q320.5,413.532,320.474,408.292Z" transform="translate(-174.194 -404.113)" fill="#fff"/><g transform="translate(16.197 5.523)"><path d="M247.508,438.054h-1.037V432h3.611v.837h-2.573v1.892h2.411v.84h-2.411Z" transform="translate(-246.471 -431.611)" fill="#414141"/><path d="M270.565,440.927a2.417,2.417,0,0,1-.608,1.752,2.246,2.246,0,0,1-1.694.629,2.425,2.425,0,0,1-1.2-.29,1.957,1.957,0,0,1-.8-.832,2.707,2.707,0,0,1-.28-1.259,2.4,2.4,0,0,1,.6-1.739,2.257,2.257,0,0,1,1.7-.625,2.195,2.195,0,0,1,1.663.64A2.389,2.389,0,0,1,270.565,440.927Zm-3.523,0q0,1.586,1.239,1.586t1.226-1.586q0-1.569-1.234-1.569a1.076,1.076,0,0,0-.939.406A1.977,1.977,0,0,0,267.041,440.927Z" transform="translate(-261.61 -436.782)" fill="#414141"/><path d="M294.16,438.563a2.609,2.609,0,0,1,.512.041l-.1.907a2.043,2.043,0,0,0-.455-.05,1.356,1.356,0,0,0-1,.381,1.334,1.334,0,0,0-.383.99v2.393H291.7v-4.58h.805l.136.807h.053a1.855,1.855,0,0,1,.628-.65A1.556,1.556,0,0,1,294.16,438.563Z" transform="translate(-281.568 -436.782)" fill="#414141"/><path d="M321.462,432.439a1.768,1.768,0,0,0-1.418.6,3.03,3.03,0,0,0-.02,3.354,1.8,1.8,0,0,0,1.438.571,3.985,3.985,0,0,0,.788-.076q.381-.077.792-.2v.849a5.05,5.05,0,0,1-1.707.269,2.809,2.809,0,0,1-2.158-.805,3.249,3.249,0,0,1-.753-2.3,3.554,3.554,0,0,1,.365-1.652,2.526,2.526,0,0,1,1.057-1.085,3.343,3.343,0,0,1,1.624-.377,4.225,4.225,0,0,1,1.812.389l-.376.824a5.8,5.8,0,0,0-.685-.255A2.6,2.6,0,0,0,321.462,432.439Z" transform="translate(-302.3 -431.288)" fill="#414141"/><path d="M347.987,440.927a2.417,2.417,0,0,1-.608,1.752,2.245,2.245,0,0,1-1.694.629,2.425,2.425,0,0,1-1.2-.29,1.956,1.956,0,0,1-.8-.832,2.707,2.707,0,0,1-.28-1.259,2.4,2.4,0,0,1,.6-1.739,2.257,2.257,0,0,1,1.7-.625,2.195,2.195,0,0,1,1.663.64A2.389,2.389,0,0,1,347.987,440.927Zm-3.523,0q0,1.586,1.239,1.586t1.225-1.586q0-1.569-1.234-1.569a1.076,1.076,0,0,0-.939.406A1.976,1.976,0,0,0,344.463,440.927Z" transform="translate(-321.819 -436.782)" fill="#414141"/><path d="M373.386,443.225h-1.033V440.41a1.185,1.185,0,0,0-.225-.791.9.9,0,0,0-.716-.261,1.17,1.17,0,0,0-.954.365,1.929,1.929,0,0,0-.3,1.221v2.282h-1.029v-4.58h.805l.144.6h.053a1.41,1.41,0,0,1,.621-.505,2.184,2.184,0,0,1,.893-.178q1.742,0,1.742,1.677Z" transform="translate(-341.813 -436.782)" fill="#414141"/><path d="M396.708,441.921a1.176,1.176,0,0,1-.516,1.029,2.582,2.582,0,0,1-1.48.358,3.666,3.666,0,0,1-1.554-.277v-.841a3.994,3.994,0,0,0,1.589.373q.949,0,.95-.542a.417.417,0,0,0-.105-.29,1.243,1.243,0,0,0-.346-.24,6.178,6.178,0,0,0-.67-.282,3.137,3.137,0,0,1-1.131-.613,1.1,1.1,0,0,1-.3-.8,1.03,1.03,0,0,1,.5-.913,2.482,2.482,0,0,1,1.363-.325,4.053,4.053,0,0,1,1.615.327l-.333.733a3.766,3.766,0,0,0-1.317-.306q-.814,0-.814.439a.436.436,0,0,0,.212.365,4.8,4.8,0,0,0,.926.41,4.339,4.339,0,0,1,.871.4,1.225,1.225,0,0,1,.4.42A1.16,1.16,0,0,1,396.708,441.921Z" transform="translate(-360.485 -436.782)" fill="#414141"/><path d="M417.253,443.534l-.144-.6h-.053a1.435,1.435,0,0,1-.611.5,2.14,2.14,0,0,1-.9.182,1.838,1.838,0,0,1-1.313-.414,1.66,1.66,0,0,1-.433-1.255v-2.994h1.037v2.824a1.178,1.178,0,0,0,.227.789.894.894,0,0,0,.713.263,1.167,1.167,0,0,0,.952-.367,1.935,1.935,0,0,0,.3-1.228v-2.281h1.033v4.579Z" transform="translate(-376.534 -437.091)" fill="#414141"/><path d="M440.41,436.608h-1.029v-6.443h1.029Z" transform="translate(-396.415 -430.165)" fill="#414141"/><path d="M450.382,439.043a2.634,2.634,0,0,0,.753-.112v.733a2.17,2.17,0,0,1-.44.118,3.182,3.182,0,0,1-.558.048,1.29,1.29,0,0,1-1.462-1.458V435.9h-.661v-.43l.709-.356.35-.969h.634v1.019h1.379v.737h-1.379v2.451a.666.666,0,0,0,.186.52A.7.7,0,0,0,450.382,439.043Z" transform="translate(-403.131 -433.304)" fill="#414141"/><path d="M468.1,443.225l-.205-.638h-.035a1.96,1.96,0,0,1-.7.569,2.343,2.343,0,0,1-.91.151,1.593,1.593,0,0,1-1.114-.364,1.322,1.322,0,0,1-.4-1.031,1.19,1.19,0,0,1,.556-1.068,3.351,3.351,0,0,1,1.694-.393l.836-.025v-.244a.893.893,0,0,0-.217-.656.913.913,0,0,0-.672-.218,2.448,2.448,0,0,0-.713.1,5.609,5.609,0,0,0-.656.244l-.333-.7a3.708,3.708,0,0,1,.862-.3,4.181,4.181,0,0,1,.884-.1,2.178,2.178,0,0,1,1.394.381,1.449,1.449,0,0,1,.471,1.2v3.085Zm-1.532-.662a1.319,1.319,0,0,0,.9-.3,1.043,1.043,0,0,0,.339-.83v-.4l-.622.025a2.224,2.224,0,0,0-1.057.23.687.687,0,0,0-.33.627.6.6,0,0,0,.193.474A.859.859,0,0,0,466.57,442.563Z" transform="translate(-416.128 -436.782)" fill="#414141"/><path d="M493.718,443.225h-1.033V440.41a1.186,1.186,0,0,0-.225-.791.9.9,0,0,0-.716-.261,1.17,1.17,0,0,0-.954.365,1.929,1.929,0,0,0-.3,1.221v2.282h-1.029v-4.58h.805l.144.6h.053a1.411,1.411,0,0,1,.621-.505,2.184,2.184,0,0,1,.893-.178q1.742,0,1.742,1.677Z" transform="translate(-435.349 -436.782)" fill="#414141"/><path d="M515.8,443.308a2.184,2.184,0,0,1-1.67-.607,2.94,2.94,0,0,1,.026-3.517,2.286,2.286,0,0,1,1.727-.621,3.391,3.391,0,0,1,1.378.269l-.311.782a3.262,3.262,0,0,0-1.076-.24q-1.257,0-1.256,1.578a1.812,1.812,0,0,0,.313,1.157,1.109,1.109,0,0,0,.917.387,2.749,2.749,0,0,0,1.3-.323v.849a2.1,2.1,0,0,1-.589.22A3.734,3.734,0,0,1,515.8,443.308Z" transform="translate(-454.082 -436.782)" fill="#414141"/><path d="M531.373,438.954h1.121l.985,2.6a4.714,4.714,0,0,1,.3,1.044h.035a4.138,4.138,0,0,1,.144-.553q.105-.325,1.112-3.087h1.112l-2.07,5.188a1.947,1.947,0,0,1-1.882,1.429,3.13,3.13,0,0,1-.666-.07v-.77a2.545,2.545,0,0,0,.53.05,1.073,1.073,0,0,0,1.046-.816l.18-.431Z" transform="translate(-467.932 -437.091)" fill="#414141"/><path d="M565.084,436.128a1.617,1.617,0,0,1,.28-.946,2.9,2.9,0,0,1,1.011-.8,3.5,3.5,0,0,1-.567-.776,1.509,1.509,0,0,1-.151-.656,1.185,1.185,0,0,1,.475-.994,2.044,2.044,0,0,1,1.276-.364,1.9,1.9,0,0,1,1.217.354,1.159,1.159,0,0,1,.442.954,1.372,1.372,0,0,1-.3.857,3.2,3.2,0,0,1-.987.77l1.514,1.383a3.646,3.646,0,0,0,.591-1.3h1.059a4.473,4.473,0,0,1-.98,1.917l1.317,1.2H569.96l-.652-.6a3.34,3.34,0,0,1-.952.511,3.458,3.458,0,0,1-1.118.172,2.492,2.492,0,0,1-1.58-.451A1.485,1.485,0,0,1,565.084,436.128Zm2.206.849a2.164,2.164,0,0,0,1.37-.443l-1.676-1.561a2.158,2.158,0,0,0-.639.528.944.944,0,0,0-.175.561.82.82,0,0,0,.3.66A1.231,1.231,0,0,0,567.29,436.977Zm-.652-4a.9.9,0,0,0,.147.493,2.888,2.888,0,0,0,.409.493,2.5,2.5,0,0,0,.694-.495.768.768,0,0,0,.2-.515.537.537,0,0,0-.19-.431.757.757,0,0,0-.506-.161.836.836,0,0,0-.549.168A.551.551,0,0,0,566.638,432.981Z" transform="translate(-494.142 -431.288)" fill="#414141"/><path d="M606.7,438.054h-1.046v-5.205h-1.882V432h4.81v.849H606.7Z" transform="translate(-524.211 -431.611)" fill="#414141"/><path d="M631.582,438.563a2.613,2.613,0,0,1,.512.041l-.1.907a2.042,2.042,0,0,0-.455-.05,1.356,1.356,0,0,0-1,.381,1.334,1.334,0,0,0-.383.99v2.393h-1.029v-4.58h.805l.136.807h.052a1.852,1.852,0,0,1,.628-.65A1.555,1.555,0,0,1,631.582,438.563Z" transform="translate(-543.909 -436.782)" fill="#414141"/><path d="M648.22,443.225l-.206-.638h-.035a1.956,1.956,0,0,1-.7.569,2.341,2.341,0,0,1-.91.151,1.6,1.6,0,0,1-1.114-.364,1.322,1.322,0,0,1-.4-1.031,1.191,1.191,0,0,1,.556-1.068,3.351,3.351,0,0,1,1.694-.393l.836-.025v-.244a.893.893,0,0,0-.217-.656.913.913,0,0,0-.672-.218,2.449,2.449,0,0,0-.713.1,5.647,5.647,0,0,0-.657.244l-.332-.7a3.7,3.7,0,0,1,.862-.3,4.176,4.176,0,0,1,.884-.1,2.178,2.178,0,0,1,1.394.381,1.449,1.449,0,0,1,.471,1.2v3.085Zm-1.532-.662a1.319,1.319,0,0,0,.9-.3,1.045,1.045,0,0,0,.339-.83v-.4l-.622.025a2.223,2.223,0,0,0-1.057.23.687.687,0,0,0-.331.627.6.6,0,0,0,.193.474A.857.857,0,0,0,646.688,442.563Z" transform="translate(-556.136 -436.782)" fill="#414141"/><path d="M669.3,431.215a.521.521,0,0,1,.151-.4.608.608,0,0,1,.431-.141.6.6,0,0,1,.422.141.522.522,0,0,1,.151.4.512.512,0,0,1-.151.391.589.589,0,0,1-.422.143.6.6,0,0,1-.431-.143A.512.512,0,0,1,669.3,431.215Zm1.09,5.793h-1.029v-4.579h1.029Z" transform="translate(-575.247 -430.565)" fill="#414141"/><path d="M684.988,443.225h-1.033V440.41a1.185,1.185,0,0,0-.225-.791.9.9,0,0,0-.716-.261,1.169,1.169,0,0,0-.954.365,1.929,1.929,0,0,0-.3,1.221v2.282h-1.029v-4.58h.805l.145.6h.053a1.41,1.41,0,0,1,.621-.505,2.182,2.182,0,0,1,.893-.178q1.742,0,1.742,1.677Z" transform="translate(-584.112 -436.782)" fill="#414141"/><path d="M705.846,431.215a.522.522,0,0,1,.151-.4.61.61,0,0,1,.431-.141.6.6,0,0,1,.422.141.523.523,0,0,1,.151.4.513.513,0,0,1-.151.391.59.59,0,0,1-.422.143.6.6,0,0,1-.431-.143A.513.513,0,0,1,705.846,431.215Zm1.089,5.793h-1.028v-4.579h1.028Z" transform="translate(-603.601 -430.565)" fill="#414141"/><path d="M721.53,443.225H720.5V440.41a1.185,1.185,0,0,0-.225-.791.9.9,0,0,0-.716-.261,1.169,1.169,0,0,0-.954.365,1.929,1.929,0,0,0-.3,1.221v2.282h-1.029v-4.58h.805l.144.6h.053a1.412,1.412,0,0,1,.622-.505,2.182,2.182,0,0,1,.893-.178q1.742,0,1.742,1.677Z" transform="translate(-612.465 -436.782)" fill="#414141"/><path d="M744.552,438.646v.534l-.827.145a1.233,1.233,0,0,1,.188.356,1.44,1.44,0,0,1-.442,1.561,2.248,2.248,0,0,1-1.423.406,2.426,2.426,0,0,1-.42-.033.549.549,0,0,0-.333.455.252.252,0,0,0,.155.236,1.413,1.413,0,0,0,.571.079h.845a1.955,1.955,0,0,1,1.217.323,1.11,1.11,0,0,1,.416.932,1.337,1.337,0,0,1-.679,1.2,3.734,3.734,0,0,1-1.961.423,2.829,2.829,0,0,1-1.51-.331,1.055,1.055,0,0,1-.521-.944.975.975,0,0,1,.282-.71,1.539,1.539,0,0,1,.79-.4.766.766,0,0,1-.339-.267.661.661,0,0,1,.019-.822,1.744,1.744,0,0,1,.455-.352,1.328,1.328,0,0,1-.61-.5,1.56,1.56,0,0,1,.263-1.965,2.168,2.168,0,0,1,1.415-.41,3.671,3.671,0,0,1,.431.027,2.938,2.938,0,0,1,.339.056Zm-3.8,5.292a.531.531,0,0,0,.3.484,1.729,1.729,0,0,0,.843.169,2.673,2.673,0,0,0,1.252-.227.681.681,0,0,0,.411-.6.447.447,0,0,0-.226-.425,1.9,1.9,0,0,0-.838-.126h-.779a1.137,1.137,0,0,0-.7.2A.632.632,0,0,0,740.749,443.938Zm.442-3.809a.89.89,0,0,0,.234.663.915.915,0,0,0,.672.232.794.794,0,0,0,.893-.9.985.985,0,0,0-.221-.689.864.864,0,0,0-.672-.242.893.893,0,0,0-.676.24A.973.973,0,0,0,741.191,440.128Z" transform="translate(-629.969 -436.782)" fill="#414141"/></g></g></g></svg>