<svg xmlns="http://www.w3.org/2000/svg" width="150" height="66.735" viewBox="0 0 150 66.735"><defs><style>.a{fill:#3679b5;}.b{fill:#377ab5;}.c{fill:#fdc501;stroke:rgba(0,0,0,0);}.d{fill:#387ab6;}.e{fill:#397bb6;}.f{fill:#c5c5c6;}.g{opacity:0.2;}.h{fill:#414141;}.i{fill:#c3c4c5;}.j{fill:#fff;}</style></defs><g transform="translate(-174.194 -194.31)"><path class="a" d="M715.538,201.631c-2.455-3.657-6.3-4.582-10.371-4.785-3.605-.18-7.228,0-10.842-.053a3.334,3.334,0,0,0-3.668,2.77c-2.39,11.385-4.665,22.794-7.05,34.18-.348,1.663.077,2.344,1.816,2.209a5.918,5.918,0,0,1,1.015.092c.749-.029,1.5-.116,2.245-.076,1.917.1,2.95-.467,3.229-2.594a88.043,88.043,0,0,1,2.027-9.681,2.23,2.23,0,0,1,1.567-1.269c1.406-.186,2.861.023,4.285-.077,5.472-.384,10.385-1.912,13.746-6.556a15.158,15.158,0,0,0,2.352-13.72l.007,0Zm-8.1,3.905.291.471c.84,5.275-2.307,10.406-8.884,10.2h-3.356c.909-4.538,1.779-8.885,2.675-13.357a28.927,28.927,0,0,1,4.529.047c1.849.3,4.052.25,4.748,2.631Z" transform="translate(-395.107 -1.337)"/><path class="b" d="M209.8,215.3c.258-2.467.2-2.52-2.4-2.535q-3.436-.019-6.871-.05H196.81a62.622,62.622,0,0,0,1.534-7.313c.176-1.944,1.079-2.2,2.752-2.161,3.6.093,7.2-.037,10.8.058a2.613,2.613,0,0,0,2.928-2.138c.145-.5.335-.989.5-1.484-.148-2.758-.148-2.759-2.951-2.759-5.793,0-11.586.02-17.379-.011-1.96-.01-3.146.663-3.553,2.7-1.418,7.079-2.958,14.134-4.426,21.2-.855,4.119-1.692,8.243-2.477,12.375-.427,2.248,0,2.7,2.447,2.926,5.375-.019,10.751.009,16.125-.073,4.6-.07,3.913.908,5.6-3.582-.017-2.76-.017-2.755-2.757-2.762q-4.568-.012-9.136-.04h-3.428c.7-3.472,1.274-6.641,2.026-9.769.1-.436,1.062-.944,1.639-.961,3.2-.095,6.407-.113,9.607-.021a2.308,2.308,0,0,0,2.637-1.912C209.453,216.426,209.634,215.867,209.8,215.3Z" transform="translate(-7.9 -1.453)"/><path class="c" d="M0,39.151,2.713,29.7l.45-1.365q1.375-4.377,2.75-8.753l.431-1.575L8.8,10.033c.169-.274.337-.548.507-.821l-5.534-.6L11.753,0l4.9,5.3L19.7,8.467c-.775.128-1.548.289-2.329.373-1.312.141-2.63.233-3.946.346l.4.82Q15.055,14,16.284,17.994q.251.823.5,1.645l2.765,8.626q.207.7.413,1.4L22.7,39.151ZM9.31,9.211l4.113-.025Z" transform="translate(231.357 195.045)"/><path class="a" d="M520.219,338.1q11.956.029,23.911.056c.263,0,.526-.039,1.173-.09l-8.738-9.37-19.085-.081Z" transform="translate(-266.285 -104.113)"/><path class="d" d="M330.353,338.16l15.74-.133,2.713-9.447c-5.517-.028-11.035-.081-16.552-.05a2.983,2.983,0,0,0-1.932.742c-2.715,2.781-5.34,5.645-8.376,8.888Z" transform="translate(-114.61 -104.039)"/><path class="b" d="M503.39,283.475l2.765,8.626,17.884.05c-.385-.447-.759-.9-1.155-1.34q-3.326-3.658-6.66-7.307Z" transform="translate(-255.332 -68.926)"/><path class="e" d="M387.112,291.975l2.749-8.753c-3.34,0-6.68-.017-10.019.021a5.454,5.454,0,0,0-1.707.4c-.224.08-.359.386-.545.581a76.453,76.453,0,0,0-6.759,7.748Z" transform="translate(-152.513 -68.727)"/><path class="a" d="M490.266,240.1l2.458,7.988,11.345-.044-7.353-7.9Z" transform="translate(-245.133 -35.117)"/><path class="a" d="M421.814,247.47l2.459-7.98c-4.024-.837-6.792.929-9.048,4a49.255,49.255,0,0,1-3.691,3.984Z" transform="translate(-184.071 -34.412)"/><path class="f" d="M825.529,218.678l.358.439Z" transform="translate(-505.098 -18.384)"/><g class="g" transform="translate(179.076 198.229)"><path class="h" d="M391.58,338.386H368.875l-15.74.133-1.769,2.519h71.923c-3.906-4.056-7.462-7.962-11.311-11.57-.785-.736-2.672-.352-4.052-.485l8.737,9.37c-.647.051-.91.09-1.173.09Q403.535,338.418,391.58,338.386Z" transform="translate(-316.613 -302.419)"/><path class="h" d="M724.721,220.668a15.157,15.157,0,0,1-2.352,13.72c-3.361,4.644-8.273,6.172-13.746,6.556-1.424.1-2.88-.11-4.286.077a2.23,2.23,0,0,0-1.566,1.269,87.986,87.986,0,0,0-2.028,9.681c-.279,2.126-1.312,2.7-3.229,2.594-.745-.039-1.5.047-2.245.076-.9,1.713-.086,2.506,1.611,2.648a23.061,23.061,0,0,0,3.88,0,2.5,2.5,0,0,0,2.578-2.243c.668-3.7,1.546-7.361,2.376-11.207,2.22-.159,4.436-.427,6.655-.459,9.335-.134,16.672-8.058,15.67-17.133C727.792,223.993,727.081,221.813,724.721,220.668Z" transform="translate(-583.015 -218.161)"/><path class="h" d="M257.945,209.381c-.17.494-.36.983-.5,1.484A2.613,2.613,0,0,1,254.513,213c-3.6-.1-7.2.035-10.8-.058-1.673-.044-2.576.217-2.752,2.161a62.577,62.577,0,0,1-1.534,7.313h3.721c.164-1.591.3-3.184.5-4.77a22.43,22.43,0,0,1,.546-2.241h6.976c2.044,0,4.1-.107,6.13.033a2.41,2.41,0,0,0,2.862-2.15c.087-.385.114-.783.183-1.173C260.835,209.409,260.837,209.409,257.945,209.381Z" transform="translate(-229.595 -209.381)"/><path class="h" d="M240.688,279.716c-.168.563-.348,1.123-.5,1.69a2.308,2.308,0,0,1-2.637,1.912c-3.2-.092-6.407-.074-9.607.021-.577.017-1.534.525-1.639.961-.752,3.129-1.329,6.3-2.026,9.769h3.428c.427-2.464.782-4.944,1.347-7.377.1-.432,1.064-.935,1.644-.954,2.99-.1,5.985-.044,8.979-.046,2.564,0,3.079-.355,3.513-2.793a19.655,19.655,0,0,0,.028-3.184Z" transform="translate(-217.862 -264.095)"/><path class="h" d="M217.574,356.962c-1.687,4.491-1,3.512-5.6,3.583-5.374.082-10.75.053-16.125.073-.121,1.783.7,2.429,2.549,2.4,5.908-.084,11.818-.03,17.728-.031,2.97,0,3.788-.772,3.9-3.7.025-.656,0-1.313,0-2.219Z" transform="translate(-195.836 -324.184)"/><path class="h" d="M560.281,283.57q3.331,3.653,6.66,7.307c.4.436.77.893,1.155,1.34h4.17c-2.84-2.947-5.3-5.772-8.1-8.231C563.383,283.3,561.6,283.679,560.281,283.57Z" transform="translate(-478.495 -267.084)"/><path class="h" d="M518.854,240.094l7.353,7.9h3.937c-.61-.748-.964-1.239-1.376-1.679-1.556-1.663-3.244-3.222-4.666-4.986C522.614,239.485,520.676,240.189,518.854,240.094Z" transform="translate(-446.363 -233.23)"/><path class="h" d="M502.791,214.13l3.047,3.172,2.667-.152-3.873-4.379Z" transform="translate(-433.89 -212.018)"/><path class="h" d="M740.036,237.276c.59-3.151,1.118-6.315,1.837-9.437.113-.491,1.068-1.063,1.684-1.126,1.677-.173,3.381-.094,5.075-.115-.7-2.381-2.9-2.328-4.748-2.631a28.936,28.936,0,0,0-4.529-.047c-.9,4.472-1.766,8.819-2.675,13.357Z" transform="translate(-615.37 -220.635)"/></g><path class="i" d="M789.645,236.261l.291.471Z" transform="translate(-477.31 -32.062)"/><g transform="translate(174.194 241.079)"><path class="a" d="M321.455,408.491c-.021-3.472-.955-4.378-4.427-4.378h-138.5c-3.379,0-4.32.915-4.329,4.236q-.014,5.789,0,11.578c.012,3.1,1.092,4.149,4.274,4.15q30.042.007,60.083,0h78.21c3.657,0,4.67-.987,4.685-4.61Q321.48,413.98,321.455,408.491Z" transform="translate(-174.194 -404.113)"/><g transform="translate(16.306 5.786)"><path class="j" d="M247.515,438.342h-1.044V432h3.635v.877h-2.591v1.982h2.428v.88h-2.428Z" transform="translate(-246.471 -431.593)"/><path class="j" d="M270.6,441.04a2.6,2.6,0,0,1-.613,1.835,2.213,2.213,0,0,1-1.705.659,2.365,2.365,0,0,1-1.207-.3,2.017,2.017,0,0,1-.807-.872,2.932,2.932,0,0,1-.282-1.319,2.576,2.576,0,0,1,.608-1.822,2.223,2.223,0,0,1,1.714-.655,2.164,2.164,0,0,1,1.674.67A2.563,2.563,0,0,1,270.6,441.04Zm-3.547,0q0,1.662,1.247,1.662t1.234-1.662q0-1.644-1.243-1.644a1.066,1.066,0,0,0-.945.425A2.136,2.136,0,0,0,267.048,441.04Z" transform="translate(-261.58 -436.698)"/><path class="j" d="M294.177,438.563a2.528,2.528,0,0,1,.516.043l-.1.95a1.976,1.976,0,0,0-.458-.052,1.337,1.337,0,0,0-1.007.4,1.429,1.429,0,0,0-.386,1.037v2.508H291.7v-4.8h.811l.137.846h.053a1.91,1.91,0,0,1,.632-.681A1.522,1.522,0,0,1,294.177,438.563Z" transform="translate(-281.5 -436.698)"/><path class="j" d="M321.482,432.479a1.748,1.748,0,0,0-1.428.633,3.283,3.283,0,0,0-.02,3.514,1.78,1.78,0,0,0,1.448.6,3.858,3.858,0,0,0,.793-.08q.383-.08.8-.206v.889a4.9,4.9,0,0,1-1.718.282,2.768,2.768,0,0,1-2.172-.844,3.492,3.492,0,0,1-.758-2.414,3.848,3.848,0,0,1,.368-1.731,2.6,2.6,0,0,1,1.064-1.136,3.258,3.258,0,0,1,1.635-.395,4.113,4.113,0,0,1,1.824.408l-.379.863a5.7,5.7,0,0,0-.69-.267A2.521,2.521,0,0,0,321.482,432.479Z" transform="translate(-302.192 -431.274)"/><path class="j" d="M348.017,441.04a2.594,2.594,0,0,1-.613,1.835,2.212,2.212,0,0,1-1.705.659,2.365,2.365,0,0,1-1.207-.3,2.016,2.016,0,0,1-.806-.872,2.931,2.931,0,0,1-.282-1.319,2.576,2.576,0,0,1,.608-1.822,2.223,2.223,0,0,1,1.714-.655,2.163,2.163,0,0,1,1.674.67A2.562,2.562,0,0,1,348.017,441.04Zm-3.547,0q0,1.662,1.247,1.662t1.234-1.662q0-1.644-1.243-1.644a1.066,1.066,0,0,0-.945.425A2.135,2.135,0,0,0,344.47,441.04Z" transform="translate(-321.674 -436.698)"/><path class="j" d="M373.414,443.448h-1.04V440.5a1.278,1.278,0,0,0-.227-.829.885.885,0,0,0-.721-.273,1.154,1.154,0,0,0-.961.382,2.082,2.082,0,0,0-.3,1.279v2.39h-1.035v-4.8h.811l.145.629h.053a1.433,1.433,0,0,1,.625-.529,2.126,2.126,0,0,1,.9-.187,1.552,1.552,0,0,1,1.754,1.757Z" transform="translate(-341.63 -436.698)"/><path class="j" d="M396.732,442.081a1.249,1.249,0,0,1-.52,1.078,2.52,2.52,0,0,1-1.489.375,3.564,3.564,0,0,1-1.564-.291v-.881a3.891,3.891,0,0,0,1.6.391q.956,0,.956-.568a.448.448,0,0,0-.106-.3,1.255,1.255,0,0,0-.348-.251,6.1,6.1,0,0,0-.674-.3,3.123,3.123,0,0,1-1.139-.642,1.177,1.177,0,0,1-.3-.833,1.09,1.09,0,0,1,.5-.957,2.421,2.421,0,0,1,1.373-.341,3.943,3.943,0,0,1,1.626.343l-.335.768a3.666,3.666,0,0,0-1.326-.321q-.819,0-.819.46a.46.46,0,0,0,.214.382,4.742,4.742,0,0,0,.932.429,4.281,4.281,0,0,1,.877.421,1.162,1.162,0,0,1,.538,1.037Z" transform="translate(-360.266 -436.698)"/><path class="j" d="M417.276,443.752l-.146-.629h-.053a1.459,1.459,0,0,1-.615.525,2.081,2.081,0,0,1-.91.191,1.8,1.8,0,0,1-1.322-.434,1.781,1.781,0,0,1-.436-1.314v-3.136h1.044v2.958a1.269,1.269,0,0,0,.229.826.882.882,0,0,0,.718.275,1.152,1.152,0,0,0,.958-.384,2.09,2.09,0,0,0,.306-1.286v-2.39h1.04v4.8Z" transform="translate(-376.285 -437.002)"/><path class="j" d="M440.417,436.915h-1.036v-6.75h1.036Z" transform="translate(-396.127 -430.165)"/><path class="j" d="M450.4,439.276a2.555,2.555,0,0,0,.758-.117v.768a2.126,2.126,0,0,1-.443.124,3.085,3.085,0,0,1-.562.05q-1.472,0-1.472-1.527v-2.585h-.665v-.451l.714-.373.352-1.015h.639v1.067h1.388v.772h-1.388v2.568a.714.714,0,0,0,.187.544A.69.69,0,0,0,450.4,439.276Z" transform="translate(-402.829 -433.264)"/><path class="j" d="M468.125,443.448l-.207-.668h-.035a1.988,1.988,0,0,1-.709.6,2.276,2.276,0,0,1-.917.158,1.565,1.565,0,0,1-1.121-.382,1.415,1.415,0,0,1-.4-1.08,1.262,1.262,0,0,1,.56-1.119,3.269,3.269,0,0,1,1.705-.412l.842-.026v-.256a.96.96,0,0,0-.218-.687.9.9,0,0,0-.676-.228,2.378,2.378,0,0,0-.718.108,5.524,5.524,0,0,0-.661.256l-.335-.729a3.633,3.633,0,0,1,.868-.31,4.046,4.046,0,0,1,.89-.107,2.131,2.131,0,0,1,1.4.4,1.549,1.549,0,0,1,.474,1.254v3.232Zm-1.542-.694a1.3,1.3,0,0,0,.905-.31,1.115,1.115,0,0,0,.342-.87v-.416l-.626.026a2.165,2.165,0,0,0-1.064.241.727.727,0,0,0-.333.657.636.636,0,0,0,.194.5A.841.841,0,0,0,466.583,442.754Z" transform="translate(-415.802 -436.698)"/><path class="j" d="M493.746,443.448h-1.04V440.5a1.279,1.279,0,0,0-.227-.829.886.886,0,0,0-.721-.273,1.155,1.155,0,0,0-.961.382,2.083,2.083,0,0,0-.3,1.279v2.39h-1.036v-4.8h.811l.145.629h.053a1.435,1.435,0,0,1,.626-.529,2.124,2.124,0,0,1,.9-.187,1.551,1.551,0,0,1,1.754,1.757Z" transform="translate(-434.986 -436.698)"/><path class="j" d="M515.817,443.534a2.151,2.151,0,0,1-1.681-.636,3.18,3.18,0,0,1,.026-3.685,2.25,2.25,0,0,1,1.738-.651,3.3,3.3,0,0,1,1.388.282l-.313.82a3.174,3.174,0,0,0-1.083-.252q-1.265,0-1.265,1.653a1.955,1.955,0,0,0,.315,1.212,1.1,1.1,0,0,0,.923.406,2.682,2.682,0,0,0,1.309-.338v.889a2.062,2.062,0,0,1-.593.23A3.622,3.622,0,0,1,515.817,443.534Z" transform="translate(-453.683 -436.698)"/><path class="j" d="M531.373,438.954H532.5l.991,2.72a5.1,5.1,0,0,1,.3,1.093h.035a4.515,4.515,0,0,1,.145-.579q.106-.341,1.119-3.234h1.119l-2.084,5.435a1.972,1.972,0,0,1-1.894,1.5,3.028,3.028,0,0,1-.67-.074v-.807a2.466,2.466,0,0,0,.533.052,1.089,1.089,0,0,0,1.053-.855l.181-.451Z" transform="translate(-467.506 -437.002)"/><path class="j" d="M565.084,436.345a1.743,1.743,0,0,1,.282-.991,2.947,2.947,0,0,1,1.018-.84,3.66,3.66,0,0,1-.571-.813,1.632,1.632,0,0,1-.152-.687,1.261,1.261,0,0,1,.478-1.041,2,2,0,0,1,1.284-.382,1.858,1.858,0,0,1,1.225.371,1.235,1.235,0,0,1,.445,1,1.476,1.476,0,0,1-.3.9,3.243,3.243,0,0,1-.994.807l1.525,1.449a3.894,3.894,0,0,0,.595-1.362h1.066a4.756,4.756,0,0,1-.987,2.009l1.326,1.262h-1.335l-.657-.629a3.2,3.2,0,0,1-2.084.716,2.439,2.439,0,0,1-1.59-.473A1.581,1.581,0,0,1,565.084,436.345Zm2.221.889a2.123,2.123,0,0,0,1.379-.464L567,435.134a2.2,2.2,0,0,0-.643.553,1.017,1.017,0,0,0-.176.588.874.874,0,0,0,.306.692A1.207,1.207,0,0,0,567.3,437.234Zm-.657-4.186a.978.978,0,0,0,.147.516,3.005,3.005,0,0,0,.412.516,2.518,2.518,0,0,0,.7-.518.822.822,0,0,0,.2-.54.572.572,0,0,0-.191-.451.744.744,0,0,0-.509-.169.82.82,0,0,0-.553.176A.588.588,0,0,0,566.648,433.048Z" transform="translate(-493.666 -431.274)"/><path class="j" d="M606.723,438.342H605.67v-5.453h-1.894V432h4.842v.889h-1.895Z" transform="translate(-523.677 -431.593)"/><path class="j" d="M631.6,438.563a2.528,2.528,0,0,1,.516.043l-.1.95a1.975,1.975,0,0,0-.458-.052,1.336,1.336,0,0,0-1.007.4,1.428,1.428,0,0,0-.386,1.037v2.508h-1.035v-4.8h.811l.137.846h.053a1.91,1.91,0,0,1,.632-.681A1.521,1.521,0,0,1,631.6,438.563Z" transform="translate(-543.337 -436.698)"/><path class="j" d="M648.243,443.448l-.207-.668H648a1.985,1.985,0,0,1-.709.6,2.274,2.274,0,0,1-.917.158,1.565,1.565,0,0,1-1.121-.382,1.415,1.415,0,0,1-.4-1.08,1.262,1.262,0,0,1,.56-1.119,3.269,3.269,0,0,1,1.705-.412l.842-.026v-.256a.959.959,0,0,0-.218-.687.9.9,0,0,0-.676-.228,2.379,2.379,0,0,0-.718.108,5.548,5.548,0,0,0-.661.256l-.335-.729a3.629,3.629,0,0,1,.868-.31,4.043,4.043,0,0,1,.89-.107,2.131,2.131,0,0,1,1.4.4,1.549,1.549,0,0,1,.474,1.254v3.232Zm-1.542-.694a1.294,1.294,0,0,0,.905-.31,1.116,1.116,0,0,0,.342-.87v-.416l-.626.026a2.164,2.164,0,0,0-1.064.241.727.727,0,0,0-.333.657.636.636,0,0,0,.194.5A.84.84,0,0,0,646.7,442.754Z" transform="translate(-555.541 -436.698)"/><path class="j" d="M669.3,431.24a.558.558,0,0,1,.152-.421.6.6,0,0,1,.434-.147.585.585,0,0,1,.425.147.559.559,0,0,1,.152.421.549.549,0,0,1-.152.41.579.579,0,0,1-.425.149.591.591,0,0,1-.434-.149A.548.548,0,0,1,669.3,431.24Zm1.1,6.069h-1.036v-4.8H670.4Z" transform="translate(-574.616 -430.559)"/><path class="j" d="M685.016,443.448h-1.04V440.5a1.277,1.277,0,0,0-.227-.829.884.884,0,0,0-.72-.273,1.154,1.154,0,0,0-.961.382,2.084,2.084,0,0,0-.3,1.279v2.39h-1.035v-4.8h.811l.146.629h.053a1.433,1.433,0,0,1,.625-.529,2.124,2.124,0,0,1,.9-.187,1.552,1.552,0,0,1,1.754,1.757Z" transform="translate(-583.464 -436.698)"/><path class="j" d="M705.846,431.24a.559.559,0,0,1,.152-.421.6.6,0,0,1,.434-.147.586.586,0,0,1,.425.147.56.56,0,0,1,.152.421.55.55,0,0,1-.152.41.58.58,0,0,1-.425.149.592.592,0,0,1-.434-.149A.549.549,0,0,1,705.846,431.24Zm1.1,6.069h-1.035v-4.8h1.035Z" transform="translate(-602.915 -430.559)"/><path class="j" d="M721.559,443.448h-1.04V440.5a1.278,1.278,0,0,0-.227-.829.885.885,0,0,0-.72-.273,1.154,1.154,0,0,0-.961.382,2.081,2.081,0,0,0-.3,1.279v2.39h-1.035v-4.8h.811l.146.629h.053a1.435,1.435,0,0,1,.625-.529,2.125,2.125,0,0,1,.9-.187,1.552,1.552,0,0,1,1.754,1.757Z" transform="translate(-611.762 -436.698)"/><path class="j" d="M744.584,438.65v.56l-.832.152a1.306,1.306,0,0,1,.189.373,1.452,1.452,0,0,1,.075.469,1.427,1.427,0,0,1-.52,1.167,2.2,2.2,0,0,1-1.432.425,2.355,2.355,0,0,1-.423-.035.575.575,0,0,0-.335.477.265.265,0,0,0,.156.247,1.374,1.374,0,0,0,.575.082h.851a1.911,1.911,0,0,1,1.225.339,1.183,1.183,0,0,1,.419.976,1.413,1.413,0,0,1-.683,1.258,3.64,3.64,0,0,1-1.974.443,2.757,2.757,0,0,1-1.521-.347,1.116,1.116,0,0,1-.524-.989,1.044,1.044,0,0,1,.284-.744,1.531,1.531,0,0,1,.8-.418.776.776,0,0,1-.341-.28.714.714,0,0,1,.02-.861,1.77,1.77,0,0,1,.458-.369,1.349,1.349,0,0,1-.615-.523,1.685,1.685,0,0,1,.265-2.058,2.124,2.124,0,0,1,1.425-.43,3.536,3.536,0,0,1,.434.028,2.859,2.859,0,0,1,.341.059Zm-3.829,5.544a.559.559,0,0,0,.3.508,1.682,1.682,0,0,0,.848.178,2.6,2.6,0,0,0,1.26-.238.715.715,0,0,0,.414-.633.473.473,0,0,0-.227-.445,1.847,1.847,0,0,0-.844-.132h-.785a1.113,1.113,0,0,0-.707.206A.671.671,0,0,0,740.755,444.194Zm.445-3.991a.954.954,0,0,0,.236.694.9.9,0,0,0,.676.243q.9,0,.9-.946a1.059,1.059,0,0,0-.223-.722.851.851,0,0,0-.676-.254.88.88,0,0,0-.681.252A1.046,1.046,0,0,0,741.2,440.2Z" transform="translate(-629.231 -436.698)"/></g></g></g></svg>