<svg xmlns="http://www.w3.org/2000/svg" xmlns:xlink="http://www.w3.org/1999/xlink" width="300" height="195" viewBox="0 0 300 195"><defs><style>.a{fill:url(#a);}.b,.f{fill:#414141;}.b{font-size:16px;font-family:"Poppins", sans-serif, Poppins;font-weight:500;}.c{fill:none;}.d{fill:#fdc501;}.e{fill:#a4d4ff;}</style><linearGradient id="a" x1="0.5" x2="0.5" y2="1" gradientUnits="objectBoundingBox"><stop offset="0" stop-color="#fdc501"/><stop offset="1" stop-color="#fff"/></linearGradient></defs><g transform="translate(-520 -353.254)"><path class="a" d="M458-329.945l151.151-168.28L758-329.945Z" transform="translate(62 851.478)"/><g transform="translate(569.916 377.478)"><text class="b" transform="translate(0.083 95.775)"><tspan x="15.152" y="17">Project Management</tspan></text><g transform="translate(62.476 11.029)"><rect class="c" width="75" height="75"/><circle class="d" cx="15.698" cy="15.698" r="15.698" transform="translate(37.5 14.826)"/><circle class="e" cx="21.802" cy="21.802" r="21.802" transform="translate(0.872 24.419)"/><g transform="translate(4.167 4.167)"><g transform="translate(0 0.275)"><path class="f" d="M65.717,19.247h0l0,0-4.3-.613a1.1,1.1,0,0,1-.508-1.977l3.478-2.6a1.1,1.1,0,0,0,.221-1.546l-3.982-5.3a1.107,1.107,0,0,0-1.549-.221L55.6,9.589A1.106,1.106,0,0,1,53.832,8.55l.615-4.3A1.1,1.1,0,0,0,53.509,3h0l-6.566-.936A1.106,1.106,0,0,0,45.689,3h0l-.615,4.3a1.107,1.107,0,0,1-1.98.507L40.487,4.335a1.107,1.107,0,0,0-1.549-.221L35.614,6.6a21.441,21.441,0,0,0-4.524,0A21,21,0,0,0,12.558,25.417c-.03.312-.041.623-.056.933h-.332a1.106,1.106,0,0,0-1.082.883l-.764,3.628L7.261,28.754a1.108,1.108,0,0,0-1.41.128L2.532,32.194A1.1,1.1,0,0,0,2.4,33.6l2.1,3.051-3.636.763A1.1,1.1,0,0,0,0,38.5v4.417a1.1,1.1,0,0,0,.878,1.081l3.636.763-2.1,3.051a1.1,1.1,0,0,0,.128,1.407L5.86,52.527a1.108,1.108,0,0,0,1.41.128l3.056-2.1.764,3.63a1.106,1.106,0,0,0,1.082.883H16.6a1.106,1.106,0,0,0,1.083-.877l.764-3.63,3.056,2.1a1.108,1.108,0,0,0,1.409-.128l1.718-1.72v3.147a4.4,4.4,0,0,0,2.212,3.8v6.135a4.421,4.421,0,0,0,4.425,4.417H35.69a4.421,4.421,0,0,0,4.425-4.417V57.758a4.4,4.4,0,0,0,2.212-3.8v-4.37a5.409,5.409,0,0,1,2.559-4.507,21.226,21.226,0,0,0,2.6-1.988l-1.476-1.645a18.829,18.829,0,0,1-2.331,1.779,7.6,7.6,0,0,0-3.569,6.361v4.37A2.21,2.21,0,0,1,37.9,56.163h-8.85a2.21,2.21,0,0,1-2.212-2.208V49.493a7.426,7.426,0,0,0-3.509-6.232A18.712,18.712,0,0,1,33.24,8.7a1.2,1.2,0,0,0-.043.12,1.1,1.1,0,0,0,.211.818l2.607,3.471a1.079,1.079,0,0,1,.066,1.226,1.1,1.1,0,0,1-1.106.531l-4.3-.614a1.106,1.106,0,0,0-1.252.936h0l-.939,6.558A1.1,1.1,0,0,0,29.419,23h0l4.3.614a1.1,1.1,0,0,1,.508,1.977l-3.477,2.6a1.1,1.1,0,0,0-.221,1.546l3.982,5.3a1.107,1.107,0,0,0,1.549.221l3.478-2.6A1.106,1.106,0,0,1,41.3,33.693l-.614,4.3a1.1,1.1,0,0,0,.938,1.25h0l6.571.937a1.226,1.226,0,0,0,.156.01,1.105,1.105,0,0,0,1.1-.947l.614-4.3a1.107,1.107,0,0,1,1.98-.507l2.608,3.471a1.107,1.107,0,0,0,1.549.221l5.31-3.975a1.1,1.1,0,0,0,.221-1.546l-2.607-3.471a1.1,1.1,0,0,1,1.04-1.756l4.3.613a1.106,1.106,0,0,0,1.252-.936h0l.938-6.559A1.1,1.1,0,0,0,65.717,19.247ZM29.053,58.372H37.9V60.58h-8.85Zm0,4.417H37.9v1.1A2.21,2.21,0,0,1,35.69,66.1H31.266a2.21,2.21,0,0,1-2.212-2.208ZM20.247,43.746a20.909,20.909,0,0,0,1.89,1.375,5.391,5.391,0,0,1,2.229,2.826l-2.373,2.364L19.7,48.73a2.212,2.212,0,0,0-3.42,1.364l-.58,2.757H13.066l-.58-2.753a2.214,2.214,0,0,0-3.42-1.364l-2.3,1.577L4.752,48.3l1.583-2.292A2.209,2.209,0,0,0,4.97,42.6l-2.758-.58V39.393l2.758-.58A2.207,2.207,0,0,0,6.336,35.4l-1.584-2.3L6.768,31.1l2.3,1.581a2.212,2.212,0,0,0,3.419-1.365l.194-.919a21,21,0,0,0,.877,3.744,6.625,6.625,0,1,0,6.689,9.607Zm-1.718-1.556a4.417,4.417,0,1,1-4.148-5.9h.042A20.912,20.912,0,0,0,18.529,42.191ZM63.677,25.647l-3.208-.457a3.312,3.312,0,0,0-3.124,5.267l1.944,2.587-3.54,2.65L53.8,33.109a3.32,3.32,0,0,0-5.94,1.518l-.448,3.207-4.379-.625.458-3.2a3.319,3.319,0,0,0-5.277-3.119l-2.592,1.94-2.655-3.533,2.591-1.941a3.312,3.312,0,0,0-1.521-5.93l-3.208-.457.626-4.372,3.208.457a3.312,3.312,0,0,0,3.125-5.267l-1.95-2.589,3.54-2.65,1.945,2.587a3.32,3.32,0,0,0,5.94-1.518l.458-3.2,4.379.624-.458,3.2a3.319,3.319,0,0,0,5.277,3.118l2.592-1.94,2.655,3.533L59.578,14.89A3.312,3.312,0,0,0,61.1,20.82l3.208.457Z" transform="translate(0 -2.057)"/></g><g transform="translate(38.713 10.497)"><path class="f" d="M288.852,76.171a8.852,8.852,0,1,0,8.852,8.852A8.852,8.852,0,0,0,288.852,76.171Zm0,15.491a6.639,6.639,0,1,1,6.639-6.639A6.639,6.639,0,0,1,288.852,91.662Z" transform="translate(-280 -76.171)"/></g><g transform="translate(32.372 48.855)"><rect class="f" width="2.213" height="3.319"/></g><g transform="translate(17.98 12.564)"><path class="f" d="M140.7,116.768a13.278,13.278,0,0,1-2.242-23.6l-1.183-1.872a15.491,15.491,0,0,0,2.621,27.536,7.064,7.064,0,0,1,4.537,6.595h2.213A9.258,9.258,0,0,0,140.7,116.768Z" transform="translate(-130.044 -91.291)"/></g><g transform="translate(54.493 41.128)"><rect class="f" width="7.745" height="2.213"/></g><g transform="translate(52.678 46.895)"><g transform="translate(0 0)"><rect class="f" width="2.213" height="8.642" transform="matrix(0.64, -0.768, 0.768, 0.64, 0, 1.7)"/></g></g><g transform="translate(47.858 49.931)"><rect class="f" width="2.213" height="7.745"/></g><g transform="translate(1.13 16.868)"><g transform="translate(0 0)"><rect class="f" width="9.124" height="2.212" transform="translate(0 2.213) rotate(-14.035)"/></g></g><g transform="translate(2.968 6.016)"><g transform="translate(0 0)"><rect class="f" width="2.212" height="9.518" transform="matrix(0.581, -0.814, 0.814, 0.581, 0, 1.8)"/></g></g><g transform="translate(12.445 0)"><g transform="translate(0)"><rect class="f" width="2.213" height="9.136" transform="matrix(0.969, -0.248, 0.248, 0.969, 0, 0.548)"/></g></g></g></g></g></g></svg>